<?plantuml 1.2026.2?><svg xmlns="http://www.w3.org/2000/svg" xmlns:xlink="http://www.w3.org/1999/xlink" contentStyleType="text/css" data-diagram-type="CLASS" height="495px" preserveAspectRatio="none" style="width:566px;height:495px;background:#FFFFFF;" version="1.1" viewBox="0 0 566 495" width="566px" zoomAndPan="magnify"><defs/><g><!--class questions--><g class="entity" data-qualified-name="questions" data-source-line="4" id="ent0002"><rect fill="#F1F1F1" height="186.375" rx="2.5" ry="2.5" style="stroke:#181818;stroke-width:0.5;" width="324.9014" x="139" y="7"/><ellipse cx="263.3115" cy="23" fill="#ADD1B2" rx="11" ry="11" style="stroke:#181818;stroke-width:1;"/><path d="M267.4209,29 L259.7021,29 L259.7021,16.6094 L267.4209,16.6094 L267.4209,18.7656 L262.1553,18.7656 L262.1553,21.4375 L266.9209,21.4375 L266.9209,23.5938 L262.1553,23.5938 L262.1553,26.8438 L267.4209,26.8438 L267.4209,29 Z " fill="#000000"/><text fill="#000000" font-family="sans-serif" font-size="14" lengthAdjust="spacing" textLength="67.7783" x="283.8115" y="27.8467">questions</text><line style="stroke:#181818;stroke-width:0.5;" x1="140" x2="462.9014" y1="39" y2="39"/><g data-visibility-modifier="IE_MANDATORY"><ellipse cx="150" cy="52.6484" fill="#000000" rx="3" ry="3" style="stroke:#000000;stroke-width:1;"/></g><text fill="#000000" font-family="sans-serif" font-size="14" lengthAdjust="spacing" textLength="101.1377" x="159" y="55.9951">id : TEXT &#171;PK&#187;</text><line style="stroke:#181818;stroke-width:1;" x1="140" x2="462.9014" y1="63.2969" y2="63.2969"/><g data-visibility-modifier="IE_MANDATORY"><ellipse cx="150" cy="76.9453" fill="#000000" rx="3" ry="3" style="stroke:#000000;stroke-width:1;"/></g><text fill="#000000" font-family="sans-serif" font-size="14" lengthAdjust="spacing" textLength="80.4316" x="159" y="80.292">type : TEXT</text><g data-visibility-modifier="IE_MANDATORY"><ellipse cx="150" cy="93.2422" fill="#000000" rx="3" ry="3" style="stroke:#000000;stroke-width:1;"/></g><text fill="#000000" font-family="sans-serif" font-size="14" lengthAdjust="spacing" textLength="77.0342" x="159" y="96.5889">text : TEXT</text><g data-visibility-modifier="IE_MANDATORY"><ellipse cx="150" cy="109.5391" fill="#000000" rx="3" ry="3" style="stroke:#000000;stroke-width:1;"/></g><text fill="#000000" font-family="sans-serif" font-size="14" lengthAdjust="spacing" textLength="110.0449" x="159" y="112.8857">phonetic : TEXT</text><g data-visibility-modifier="IE_MANDATORY"><ellipse cx="150" cy="125.8359" fill="#000000" rx="3" ry="3" style="stroke:#000000;stroke-width:1;"/></g><text fill="#000000" font-family="sans-serif" font-size="14" lengthAdjust="spacing" textLength="116.4434" x="159" y="129.1826">cefr_level : TEXT</text><g data-visibility-modifier="IE_MANDATORY"><ellipse cx="150" cy="142.1328" fill="#000000" rx="3" ry="3" style="stroke:#000000;stroke-width:1;"/></g><text fill="#000000" font-family="sans-serif" font-size="14" lengthAdjust="spacing" textLength="149.7412" x="159" y="145.4795">created_at : INTEGER</text><line style="stroke:#181818;stroke-width:1;" x1="140" x2="462.9014" y1="152.7813" y2="152.7813"/><text fill="#000000" font-family="sans-serif" font-size="14" lengthAdjust="spacing" textLength="209.7881" x="145" y="169.7764">type CHECK : word | sentence</text><text fill="#000000" font-family="sans-serif" font-size="14" lengthAdjust="spacing" textLength="312.9014" x="145" y="186.0732">cefr_level CHECK : A1 | A2 | B1 | B2 | C1 | C2</text></g><!--class question_options--><g class="entity" data-qualified-name="question_options" data-source-line="17" id="ent0003"><rect fill="#F1F1F1" height="218.9688" rx="2.5" ry="2.5" style="stroke:#181818;stroke-width:0.5;" width="295.1582" x="7" y="270"/><ellipse cx="90.8052" cy="286" fill="#ADD1B2" rx="11" ry="11" style="stroke:#181818;stroke-width:1;"/><path d="M94.9146,292 L87.1958,292 L87.1958,279.6094 L94.9146,279.6094 L94.9146,281.7656 L89.6489,281.7656 L89.6489,284.4375 L94.4146,284.4375 L94.4146,286.5938 L89.6489,286.5938 L89.6489,289.8438 L94.9146,289.8438 L94.9146,292 Z " fill="#000000"/><text fill="#000000" font-family="sans-serif" font-size="14" lengthAdjust="spacing" textLength="119.0479" x="111.3052" y="290.8467">question_options</text><line style="stroke:#181818;stroke-width:0.5;" x1="8" x2="301.1582" y1="302" y2="302"/><g data-visibility-modifier="IE_MANDATORY"><ellipse cx="18" cy="315.6484" fill="#000000" rx="3" ry="3" style="stroke:#000000;stroke-width:1;"/></g><text fill="#000000" font-family="sans-serif" font-size="14" lengthAdjust="spacing" textLength="101.1377" x="27" y="318.9951">id : TEXT &#171;PK&#187;</text><line style="stroke:#181818;stroke-width:1;" x1="8" x2="301.1582" y1="326.2969" y2="326.2969"/><g data-visibility-modifier="IE_MANDATORY"><ellipse cx="18" cy="339.9453" fill="#000000" rx="3" ry="3" style="stroke:#000000;stroke-width:1;"/></g><text fill="#000000" font-family="sans-serif" font-size="14" lengthAdjust="spacing" textLength="168.2324" x="27" y="343.292">question_id : TEXT &#171;FK&#187;</text><g data-visibility-modifier="IE_MANDATORY"><ellipse cx="18" cy="356.2422" fill="#000000" rx="3" ry="3" style="stroke:#000000;stroke-width:1;"/></g><text fill="#000000" font-family="sans-serif" font-size="14" lengthAdjust="spacing" textLength="114.3379" x="27" y="359.5889">language : TEXT</text><g data-visibility-modifier="IE_MANDATORY"><ellipse cx="18" cy="372.5391" fill="#000000" rx="3" ry="3" style="stroke:#000000;stroke-width:1;"/></g><text fill="#000000" font-family="sans-serif" font-size="14" lengthAdjust="spacing" textLength="77.0342" x="27" y="375.8857">text : TEXT</text><g data-visibility-modifier="IE_MANDATORY"><ellipse cx="18" cy="388.8359" fill="#000000" rx="3" ry="3" style="stroke:#000000;stroke-width:1;"/></g><text fill="#000000" font-family="sans-serif" font-size="14" lengthAdjust="spacing" textLength="142.7959" x="27" y="392.1826">is_correct : INTEGER</text><g data-visibility-modifier="IE_MANDATORY"><ellipse cx="18" cy="405.1328" fill="#000000" rx="3" ry="3" style="stroke:#000000;stroke-width:1;"/></g><text fill="#000000" font-family="sans-serif" font-size="14" lengthAdjust="spacing" textLength="149.7412" x="27" y="408.4795">created_at : INTEGER</text><g data-visibility-modifier="IE_MANDATORY"><ellipse cx="18" cy="421.4297" fill="#000000" rx="3" ry="3" style="stroke:#000000;stroke-width:1;"/></g><text fill="#000000" font-family="sans-serif" font-size="14" lengthAdjust="spacing" textLength="154.3213" x="27" y="424.7764">updated_at : INTEGER</text><line style="stroke:#181818;stroke-width:1;" x1="8" x2="301.1582" y1="432.0781" y2="432.0781"/><text fill="#000000" font-family="sans-serif" font-size="14" lengthAdjust="spacing" textLength="283.1582" x="13" y="449.0732">UNIQUE : question_id + language + text</text><text fill="#000000" font-family="sans-serif" font-size="14" lengthAdjust="spacing" textLength="253.668" x="13" y="465.3701">language CHECK : pt | es | fr | de | it</text><text fill="#000000" font-family="sans-serif" font-size="14" lengthAdjust="spacing" textLength="165.3613" x="13" y="481.667">is_correct CHECK : 0 | 1</text></g><!--class question_progress--><g class="entity" data-qualified-name="question_progress" data-source-line="32" id="ent0004"><rect fill="#F1F1F1" height="129.4844" rx="2.5" ry="2.5" style="stroke:#181818;stroke-width:0.5;" width="222.4238" x="337.5" y="315"/><ellipse cx="380.3495" cy="331" fill="#ADD1B2" rx="11" ry="11" style="stroke:#181818;stroke-width:1;"/><path d="M384.4588,337 L376.7401,337 L376.7401,324.6094 L384.4588,324.6094 L384.4588,326.7656 L379.1932,326.7656 L379.1932,329.4375 L383.9588,329.4375 L383.9588,331.5938 L379.1932,331.5938 L379.1932,334.8438 L384.4588,334.8438 L384.4588,337 Z " fill="#000000"/><text fill="#000000" font-family="sans-serif" font-size="14" lengthAdjust="spacing" textLength="128.5361" x="400.5382" y="335.8467">question_progress</text><line style="stroke:#181818;stroke-width:0.5;" x1="338.5" x2="558.9238" y1="347" y2="347"/><g data-visibility-modifier="IE_MANDATORY"><ellipse cx="348.5" cy="360.6484" fill="#000000" rx="3" ry="3" style="stroke:#000000;stroke-width:1;"/></g><text fill="#000000" font-family="sans-serif" font-size="14" lengthAdjust="spacing" textLength="194.7559" x="357.5" y="363.9951">question_id : TEXT &#171;PK, FK&#187;</text><line style="stroke:#181818;stroke-width:1;" x1="338.5" x2="558.9238" y1="371.2969" y2="371.2969"/><g data-visibility-modifier="IE_MANDATORY"><ellipse cx="348.5" cy="384.9453" fill="#000000" rx="3" ry="3" style="stroke:#000000;stroke-width:1;"/></g><text fill="#000000" font-family="sans-serif" font-size="14" lengthAdjust="spacing" textLength="154.3555" x="357.5" y="388.292">times_seen : INTEGER</text><g data-visibility-modifier="IE_MANDATORY"><ellipse cx="348.5" cy="401.2422" fill="#000000" rx="3" ry="3" style="stroke:#000000;stroke-width:1;"/></g><text fill="#000000" font-family="sans-serif" font-size="14" lengthAdjust="spacing" textLength="170.5361" x="357.5" y="404.5889">times_correct : INTEGER</text><g data-visibility-modifier="IE_MANDATORY"><ellipse cx="348.5" cy="417.5391" fill="#000000" rx="3" ry="3" style="stroke:#000000;stroke-width:1;"/></g><text fill="#000000" font-family="sans-serif" font-size="14" lengthAdjust="spacing" textLength="164.4932" x="357.5" y="420.8857">times_wrong : INTEGER</text><text fill="#000000" font-family="sans-serif" font-size="14" lengthAdjust="spacing" textLength="196.4238" x="357.5" y="437.1826">last_answered_at : INTEGER</text></g><!--link questions to question_options--><g class="link" data-entity-1="ent0002" data-entity-2="ent0003" data-link-type="crowfoot" data-source-line="41" id="lnk5"><path codeLine="41" d="M249.0144,200.089 C235.9744,224.699 233.9231,228.5524 220.4631,253.9724" fill="none" id="questions-question_options" style="stroke:#181818;stroke-width:1;"/><line style="stroke:#181818;stroke-width:1;" x1="247.3527" x2="254.4217" y1="194.6817" y2="198.4273"/><line style="stroke:#181818;stroke-width:1;" x1="245.9481" x2="253.0171" y1="197.3325" y2="201.0782"/><line style="stroke:#181818;stroke-width:1;" x1="249.0144" x2="252.76" y1="200.089" y2="193.02"/><line style="stroke:#181818;stroke-width:1;" x1="215.7836" x2="217.3425" y1="262.81" y2="272.6877"/><line style="stroke:#181818;stroke-width:1;" x1="215.7836" x2="206.7375" y1="262.81" y2="267.0723"/><line style="stroke:#181818;stroke-width:1;" x1="215.7836" x2="212.04" y1="262.81" y2="269.88"/><ellipse cx="218.5913" cy="257.5074" fill="none" rx="4" ry="4" style="stroke:#181818;stroke-width:1;"/><text fill="#000000" font-family="sans-serif" font-size="13" lengthAdjust="spacing" textLength="22.9785" x="238.5" y="236.0669">has</text></g><!--link questions to question_progress--><g class="link" data-entity-1="ent0002" data-entity-2="ent0004" data-link-type="association" data-source-line="42" id="lnk6"><path codeLine="42" d="M353.986,200.0888 C375.136,239.9988 388.6092,265.4345 407.7192,301.5145" fill="none" id="questions-question_progress" style="stroke:#181818;stroke-width:1;"/><line style="stroke:#181818;stroke-width:1;" x1="348.5786" x2="355.6474" y1="198.4274" y2="194.6814"/><line style="stroke:#181818;stroke-width:1;" x1="349.9834" x2="357.0522" y1="201.0782" y2="197.3321"/><line style="stroke:#181818;stroke-width:1;" x1="353.986" x2="350.24" y1="200.0888" y2="193.02"/><line style="stroke:#181818;stroke-width:1;" x1="409.5914" x2="414.74" y1="305.0493" y2="314.77"/><ellipse cx="409.5914" cy="305.0493" fill="none" rx="4" ry="4" style="stroke:#181818;stroke-width:1;"/><line style="stroke:#181818;stroke-width:1;" x1="416.4026" x2="409.333" y1="309.363" y2="313.1074"/><text fill="#000000" font-family="sans-serif" font-size="13" lengthAdjust="spacing" textLength="22.9785" x="376.5" y="236.0669">has</text></g><?plantuml-src XLDDQy904BtdLmmvQWFLeuYW8ROYY2qAlOKb6PE5k9lkhBLY-j-xCKRpPNjPPjvxkpFpc8rvYB177SkGh3XFIAD2gKyfacMXq5oVmFuy86ak1Td026uPd2s07l0GHh3nFZOm7g-Naua17UV2vCzSkIB7RrtDqrWAr3oeOW7kb9_W5oOrL27J6FeilxzORRmNxxsiSwdYldhkqd17gKB8W4phA08qTEN1KZGT6CbqQ8vP7itooCqZTsZzjCVsPTgUlWJ_DU5seIgP5v8U94n41nRzQHCdFv1AOL0V_g4hFJYauKExjgl5szOpUBMn_hsH_gM-4TwGqhPK6ukGpB5JvZ3RaW7FbPK6I-spuGQTPgPAHWgfuMQ9NktiD6szV89vVS7u7iadHD4me22wNIkuev8YgZ498-qpGKVp0nhMcJdkMvzbZYFFxKKOWHqpiflAh6F8g_GN?></g></svg>